<?xml version="1.0" encoding="utf-8"?>
<!-- Generator: Adobe Illustrator 27.5.0, SVG Export Plug-In . SVG Version: 6.00 Build 0)  -->
<svg version="1.1" id="Calque_1" xmlns="http://www.w3.org/2000/svg" xmlns:xlink="http://www.w3.org/1999/xlink" x="0px" y="0px"
	 width="512px" height="512px" viewBox="0 0 512 512" style="enable-background:new 0 0 512 512;" xml:space="preserve">
<style type="text/css">
	.st0{fill:#C11414;}
	.st1{fill:#FCFCFC;}
</style>
<circle class="st0" cx="256" cy="256" r="256"/>
<path class="st1" d="M470.5,116.3c-14.8-22.7-33.1-42.9-54.1-59.8c-23.4,3.4-41.4,23.6-41.4,48c0,26.8,21.7,48.5,48.5,48.5
	C446.2,153,465.3,137.4,470.5,116.3z"/>
<circle class="st1" cx="326.5" cy="415.5" r="48.5"/>
<path class="st1" d="M48.5,111c-1.2,0-2.4,0.1-3.6,0.1c-15.9,23.1-28.1,49-35.7,76.7C18,200.1,32.3,208,48.5,208
	c26.8,0,48.5-21.7,48.5-48.5S75.3,111,48.5,111z"/>
</svg>
