<?xml version="1.0" encoding="utf-8"?>
<!-- Generator: Adobe Illustrator 27.5.0, SVG Export Plug-In . SVG Version: 6.00 Build 0)  -->
<svg version="1.1" id="Calque_1" xmlns="http://www.w3.org/2000/svg" xmlns:xlink="http://www.w3.org/1999/xlink" x="0px" y="0px"
	 width="512px" height="512px" viewBox="0 0 512 512" style="enable-background:new 0 0 512 512;" xml:space="preserve">
<path d="M512,256C512,114.6,397.4,0,256,0S0,114.6,0,256s114.6,256,256,256S512,397.4,512,256z M88.6,187.1
	c0-92.4,74.9-167.4,167.4-167.4s167.4,74.9,167.4,167.4S348.4,354.5,256,354.5S88.6,279.5,88.6,187.1z M301.9,155.3
	c8.2-10.1,13.2-23,13.2-37.2c0-32.6-26.5-59.1-59.1-59.1s-59.1,26.5-59.1,59.1c0,14.2,4.9,27.1,13.2,37.2c-14.2,12.7-23,31-23,51.4
	c0,38,30.9,68.9,68.9,68.9s68.9-30.9,68.9-68.9C324.9,186.3,316.1,168,301.9,155.3z M236.3,118.2c0-10.9,8.8-19.7,19.7-19.7
	s19.7,8.8,19.7,19.7s-8.8,19.7-19.7,19.7S236.3,129,236.3,118.2z M256,177.2c16.3,0,29.5,13.2,29.5,29.5s-13.2,29.5-29.5,29.5
	s-29.5-13.2-29.5-29.5S239.7,177.2,256,177.2z"/>
</svg>
