<?xml version="1.0" encoding="utf-8"?>
<!-- Generator: Adobe Illustrator 27.4.0, SVG Export Plug-In . SVG Version: 6.00 Build 0)  -->
<svg version="1.1" id="Calque_1" xmlns="http://www.w3.org/2000/svg" xmlns:xlink="http://www.w3.org/1999/xlink" x="0px" y="0px"
	 width="512px" height="512px" viewBox="0 0 512 512" style="enable-background:new 0 0 512 512;" xml:space="preserve">
<style type="text/css">
	.st0{fill:#FFFFFF;}
</style>
<path class="st0" d="M0,256C0,114.6,114.6,0,256,0s256,114.6,256,256S397.4,512,256,512S0,397.4,0,256z M384,192
	c0-70.7-57.3-128-128-128s-128,57.3-128,128s57.3,128,128,128S384,262.7,384,192z M304,144c0,11.5-4,22-10.7,30.2
	c11.5,10.3,18.7,25.2,18.7,41.8c0,30.9-25.1,56-56,56s-56-25.1-56-56c0-16.6,7.2-31.5,18.7-41.8C212,166,208,155.5,208,144
	c0-26.5,21.5-48,48-48S304,117.5,304,144z M256,160c8.8,0,16-7.2,16-16s-7.2-16-16-16c-8.8,0-16,7.2-16,16S247.2,160,256,160z
	 M280,216c0-13.3-10.7-24-24-24c-13.3,0-24,10.7-24,24s10.7,24,24,24C269.3,240,280,229.3,280,216z"/>
</svg>
